<svg width="15" height="15" viewBox="0 0 15 15" fill="none" xmlns="http://www.w3.org/2000/svg">
<path d="M11.875 13.75C11.1875 13.75 10.599 13.5052 10.1094 13.0156C9.61979 12.526 9.375 11.9375 9.375 11.25V8.4375C9.375 8 9.52604 7.63021 9.82813 7.32813C10.1302 7.02604 10.5 6.875 10.9375 6.875C11.375 6.875 11.7448 7.02604 12.0469 7.32813C12.349 7.63021 12.5 8 12.5 8.4375V11.25H11.25V8.4375C11.25 8.35417 11.2188 8.28125 11.1563 8.21875C11.0938 8.15625 11.0208 8.125 10.9375 8.125C10.8542 8.125 10.7812 8.15625 10.7187 8.21875C10.6562 8.28125 10.625 8.35417 10.625 8.4375V11.25C10.625 11.5938 10.7473 11.8881 10.9919 12.1331C11.2369 12.3777 11.5312 12.5 11.875 12.5C12.2188 12.5 12.5131 12.3777 12.7581 12.1331C13.0027 11.8881 13.125 11.5938 13.125 11.25V8.75H14.375V11.25C14.375 11.9375 14.1302 12.526 13.6406 13.0156C13.151 13.5052 12.5625 13.75 11.875 13.75ZM1.875 11.25C1.53125 11.25 1.23708 11.1277 0.9925 10.8831C0.7475 10.6381 0.625 10.3438 0.625 10V2.5C0.625 2.15625 0.7475 1.86187 0.9925 1.61687C1.23708 1.37229 1.53125 1.25 1.875 1.25H11.875C12.2188 1.25 12.5131 1.37229 12.7581 1.61687C13.0027 1.86187 13.125 2.15625 13.125 2.5V6.25H10.9375C10.3333 6.25 9.81771 6.46354 9.39062 6.89062C8.96354 7.31771 8.75 7.83333 8.75 8.4375V11.25H1.875ZM6.875 6.875L11.875 3.75V2.5L6.875 5.625L1.875 2.5V3.75L6.875 6.875Z" fill="white"/>
</svg>
