<svg width="87" height="63" viewBox="0 0 87 63" fill="none" xmlns="http://www.w3.org/2000/svg">
<path d="M54.4388 7.41138L60.4318 39.2833" stroke="#183468" stroke-width="2" stroke-linecap="round"/>
<path d="M25.4677 61.9478L38.0484 59.8884M2 25.7936L11.1935 21.2172C18.8548 20.073 34.9032 16.6407 39.7419 14.3524C43.6129 12.5219 52.7097 8.67762 53.2903 3.36891L56.1935 2.45361L64.1774 43.1842L61.5161 44.0995C61.3548 41.9639 54.9355 37.6925 30.5484 37.6925L15.0645 40.2095L4.41935 39.0654L2 25.7936Z" stroke="#183468" stroke-width="2" stroke-linecap="round"/>
<path d="M4.99649 27.9512L8.74212 25.8264" stroke="#183468" stroke-width="2" stroke-linecap="round"/>
<path d="M5.74564 32.2009L10.2404 31.4927" stroke="#183468" stroke-width="2" stroke-linecap="round"/>
<path d="M6.49475 35.7422L10.9895 36.4505" stroke="#183468" stroke-width="2" stroke-linecap="round"/>
<path d="M27.4703 21.5769L29.7177 34.3257" stroke="#183468" stroke-width="2" stroke-linecap="round"/>
<path d="M16.9825 42.4915L17.2197 44.2413L31.2159 41.4916L30.9787 39.9917" stroke="#183468" stroke-width="2" stroke-linecap="round"/>
<path d="M20.7281 46.307L27.9889 61.2395L36.4598 59.882L29.4411 44.9495" stroke="#183468" stroke-width="2" stroke-linecap="round"/>
<path d="M64.1774 8.828L79.1599 1.74536" stroke="#183468" stroke-width="2" stroke-linecap="round"/>
<path d="M66.1617 21.4277L82.7711 18.7626" stroke="#183468" stroke-width="2" stroke-linecap="round"/>
<path d="M68.5921 33.4229L85 37.0352" stroke="#183468" stroke-width="2" stroke-linecap="round"/>
</svg>
