<svg width="15" height="15" viewBox="0 0 15 15" fill="none" xmlns="http://www.w3.org/2000/svg">
<path d="M11.875 7.5C11.875 6.28125 11.4504 5.24729 10.6012 4.39813C9.7525 3.54938 8.71875 3.125 7.5 3.125V1.875C8.28125 1.875 9.01312 2.02333 9.69562 2.32C10.3777 2.61708 10.9715 3.01813 11.4769 3.52313C11.9819 4.02854 12.3829 4.62229 12.68 5.30438C12.9767 5.98688 13.125 6.71875 13.125 7.5H11.875ZM9.375 7.5C9.375 6.97917 9.19271 6.53646 8.82812 6.17188C8.46354 5.80729 8.02083 5.625 7.5 5.625V4.375C8.36458 4.375 9.10167 4.67958 9.71125 5.28875C10.3204 5.89833 10.625 6.63542 10.625 7.5H9.375ZM12.4688 13.125C11.125 13.125 9.81521 12.8254 8.53938 12.2263C7.26313 11.6275 6.13292 10.8358 5.14875 9.85125C4.16417 8.86708 3.3725 7.73687 2.77375 6.46062C2.17458 5.18479 1.875 3.875 1.875 2.53125C1.875 2.34375 1.9375 2.1875 2.0625 2.0625C2.1875 1.9375 2.34375 1.875 2.53125 1.875H5.0625C5.20833 1.875 5.33854 1.92187 5.45313 2.01562C5.56771 2.10937 5.63542 2.22917 5.65625 2.375L6.0625 4.5625C6.08333 4.70833 6.08083 4.84104 6.055 4.96062C6.02875 5.08062 5.96875 5.1875 5.875 5.28125L4.35937 6.8125C4.79687 7.5625 5.34646 8.26562 6.00812 8.92187C6.66937 9.57812 7.39583 10.1458 8.1875 10.625L9.65625 9.15625C9.75 9.0625 9.8725 8.99208 10.0238 8.945C10.1746 8.89833 10.3229 8.88542 10.4688 8.90625L12.625 9.34375C12.7708 9.375 12.8906 9.44521 12.9844 9.55437C13.0781 9.66396 13.125 9.79167 13.125 9.9375V12.4688C13.125 12.6563 13.0625 12.8125 12.9375 12.9375C12.8125 13.0625 12.6563 13.125 12.4688 13.125ZM3.76563 5.625L4.79688 4.59375L4.53125 3.125H3.14063C3.19271 3.55208 3.26562 3.97396 3.35938 4.39063C3.45313 4.80729 3.58854 5.21875 3.76563 5.625ZM9.35938 11.2188C9.76563 11.3958 10.1798 11.5365 10.6019 11.6406C11.0235 11.7448 11.4479 11.8125 11.875 11.8438V10.4688L10.4062 10.1719L9.35938 11.2188Z" fill="white"/>
</svg>
